<mxfile host="app.diagrams.net" modified="2022-08-17T00:04:55.177Z" agent="5.0 (Macintosh; Intel Mac OS X 10_15_7) AppleWebKit/537.36 (KHTML, like Gecko) Chrome/104.0.0.0 Safari/537.36" etag="EiWODM6FCX9wGOn9VKrb" version="20.2.4" type="github">
  <diagram id="FQg1CdOIyZy9JbxJCcHM" name="페이지-1">
    <mxGraphModel dx="1426" dy="1289" grid="1" gridSize="10" guides="1" tooltips="1" connect="1" arrows="1" fold="1" page="1" pageScale="1" pageWidth="1169" pageHeight="827" math="0" shadow="0">
      <root>
        <mxCell id="0" />
        <mxCell id="1" parent="0" />
      </root>
    </mxGraphModel>
  </diagram>
</mxfile>
